<?xml version="1.0" encoding="UTF-8"?>
<svg xmlns="http://www.w3.org/2000/svg" viewBox="0 0 1000 1000">
  <defs>
    <style>
      .cls-1 {
        fill: #cd1b1b;
      }

      .cls-2 {
        fill: #fff;
      }
    </style>
  </defs>
  <g id="Layer_2" data-name="Layer 2">
    <polygon class="cls-1" points="1000 1000 -.4 1000 -.4 -2.2 1000 -.55 1000 1000"/>
  </g>
  <g id="Layer_1" data-name="Layer 1">
    <g>
      <path class="cls-2" d="M255.47,491.12v116.4h-37.8l-1.2-18.9h-.6c-1.8,4.6-4.35,8.4-7.65,11.4-3.3,3-7,5.25-11.1,6.75-4.1,1.5-8.5,2.55-13.2,3.15-4.7.6-9.45.9-14.25.9-14.2,0-25.4-2.35-33.6-7.05-8.2-4.7-14.4-11.75-18.6-21.15-4.2-9.4-6.85-21-7.95-34.8-1.1-13.8-1.65-29.6-1.65-47.4s1.05-33.9,3.15-47.7c2.1-13.8,6.1-25.4,12-34.8,5.9-9.4,14.05-16.55,24.45-21.45,10.4-4.9,23.8-7.35,40.2-7.35,9.8,0,18.85,1.3,27.15,3.9,8.3,2.6,15.45,6.8,21.45,12.6,6,5.8,10.7,13.25,14.1,22.35,3.4,9.1,5.1,20.15,5.1,33.15h-54c0-11.4-1-19.7-3-24.9-2-6.2-6.3-9.3-12.9-9.3-4.6,0-8.25,1.1-10.95,3.3-2.7,2.2-4.7,6.1-6,11.7-1.3,5.6-2.15,13.15-2.55,22.65-.4,9.5-.6,21.45-.6,35.85s.2,26.35.6,35.85c.4,9.5,1.25,17.05,2.55,22.65,1.3,5.6,3.2,9.5,5.7,11.7,2.5,2.2,5.85,3.3,10.05,3.3,3,0,5.65-.6,7.95-1.8,2.3-1.2,4.25-3.45,5.85-6.75,1.6-3.3,2.85-7.9,3.75-13.8.9-5.9,1.35-13.45,1.35-22.65h-19.8v-37.8h72Z"/>
      <path class="cls-2" d="M325.07,556.82c0,8.8,1.5,14.65,4.5,17.55,3,2.9,6.4,4.35,10.2,4.35,4.8,0,8.55-1.95,11.25-5.85,2.7-3.9,4.05-11.35,4.05-22.35h48.6c-.4,20-5.5,35.05-15.3,45.15-9.8,10.1-25.9,15.15-48.3,15.15-13,0-23.9-1.45-32.7-4.35-8.8-2.9-15.9-7.7-21.3-14.4-5.4-6.7-9.25-15.45-11.55-26.25-2.3-10.8-3.45-23.9-3.45-39.3s1.3-28.8,3.9-39.6c2.6-10.8,6.7-19.6,12.3-26.4,5.6-6.8,12.75-11.75,21.45-14.85,8.7-3.1,19.15-4.65,31.35-4.65,10.8,0,20.25,1.3,28.35,3.9,8.1,2.6,14.9,6.95,20.4,13.05,5.5,6.1,9.6,14.1,12.3,24,2.7,9.9,4.05,22.25,4.05,37.05v16.5h-80.1v21.3ZM351.62,480.02c-2.1-4-6.05-6-11.85-6s-9.45,2-11.55,6c-2.1,4-3.15,10.3-3.15,18.9v7.2h29.7v-7.2c0-8.6-1.05-14.9-3.15-18.9Z"/>
      <path class="cls-2" d="M496.07,485.72c-2-3-5.4-4.5-10.2-4.5s-8.2,1.5-10.2,4.5c-2,3-3,7.9-3,14.7v107.1h-54v-162.3h52.2v19.8h.6c7-16,20.1-24,39.3-24,11.2,0,19.75,2.05,25.65,6.15,5.9,4.1,10.55,10.35,13.95,18.75,4.2-9.2,9.95-15.65,17.25-19.35,7.3-3.7,15.15-5.55,23.55-5.55,6,0,11.55.65,16.65,1.95,5.1,1.3,9.55,3.65,13.35,7.05,3.8,3.4,6.8,7.9,9,13.5,2.2,5.6,3.3,12.8,3.3,21.6v122.4h-54v-107.1c0-6.8-1-11.7-3-14.7-2-3-5.4-4.5-10.2-4.5s-8.2,1.5-10.2,4.5c-2,3-3,7.9-3,14.7v107.1h-54v-107.1c0-6.8-1-11.7-3-14.7Z"/>
      <path class="cls-2" d="M730.37,598.82c-.4-3-.8-6.2-1.2-9.6h-.6c-8.22,22.19-38.34,25.26-57.45,18.45-11.42-4.14-18.54-12.92-21.75-24.45-3.25-11.18-3.1-28.2-.15-39,5.18-20.12,22.91-27.76,42.75-32.4,0,0,21.3-5.1,21.3-5.1,10.82-2.76,15.76-6.71,15.9-17.7,0-10-4.6-15-13.8-15-5.2,0-9,1.45-11.4,4.35-2.4,2.9-3.7,8.65-3.9,17.25h-46.8c-1.24-38.18,28.71-55.38,62.1-54.6,23.29.15,49.18,3.29,59.55,26.25,8.76,15.43,3.13,86.88,4.65,105.15.33,12.96-.22,24.57,5.1,35.1h-52.2c-1-2.8-1.7-5.7-2.1-8.7ZM725.27,568.82c5.24-7.31,3.71-29.28,3.9-39.6h-.6c-4.27,5.44-11.9,3.75-18.3,7.5-12.59,5.01-13.93,23.91-7.5,33.9,5.23,7.66,18.71,5.56,22.5-1.8Z"/>
      <path class="cls-2" d="M771.11,477.57c5.92-22.03,78.79-41.56,91.58-55.58,3.28.75,5.44,16.65-1.1,27.69-5.52,9.32-15.75,12.66-15.35,13.43.65,1.26,24.31-1.93,32.07-8.22,4.47-3.62,2.57,19.72-5.21,29.33-8.53,10.53-21.57,12.48-21.11,14.25.75,2.87,29.22,5.7,38.65,1.1,5.23-2.56-4.47,18.56-13.43,25.77-9.59,7.71-20.33,8.92-20.01,10.69.44,2.51,18.9,9.06,25.77,4.11,5.57-4.01,2.02,16.11-14.66,23.11-9.49,3.98-22.56,4.61-23.45,7.59-.56,1.86,2.81,4.85,6.03,6.3,7.83,3.53,15.63-1.65,16.45-.27,1.22,2.06-12.09,18.6-32.9,23.3-28.08,5.19-51.36-9.55-61.84-22.02-3.72-5.62-4.78-11.41-4.5-34.72.31-26.33,1.77-27.73,2.74-27.96,5.43-1.28,11.89,30.48,23.85,30.43,7.63-.03,16.86-12.46,14.8-21.66-2.77-12.37-36.27-22.03-36.46-30.43-.17-7.58-2.47-11.31-1.94-16.24Z"/>
    </g>
  </g>
</svg>